<?xml version="1.0" encoding="UTF-8" standalone="no"?><svg xmlns="http://www.w3.org/2000/svg" xmlns:xlink="http://www.w3.org/1999/xlink" contentScriptType="application/ecmascript" contentStyleType="text/css" height="369px" preserveAspectRatio="none" style="width:712px;height:369px;background:#FFFFFF;" version="1.1" viewBox="0 0 712 369" width="712px" zoomAndPan="magnify"><defs><filter height="300%" id="fsphjwuip3rnu" width="300%" x="-1" y="-1"><feGaussianBlur result="blurOut" stdDeviation="2.0"/><feColorMatrix in="blurOut" result="blurOut2" type="matrix" values="0 0 0 0 0 0 0 0 0 0 0 0 0 0 0 0 0 0 .4 0"/><feOffset dx="4.0" dy="4.0" in="blurOut2" result="blurOut3"/><feBlend in="SourceGraphic" in2="blurOut3" mode="normal"/></filter></defs><g><!--MD5=[5e9a57a3377260e11f4c161d717e577e]
cluster builtins--><polygon fill="#FFFFFF" filter="url(#fsphjwuip3rnu)" points="16,6,78,6,85,28.4883,327,28.4883,327,105,16,105,16,6" style="stroke:#000000;stroke-width:1.5;"/><line style="stroke:#000000;stroke-width:1.5;" x1="16" x2="85" y1="28.4883" y2="28.4883"/><text fill="#000000" font-family="sans-serif" font-size="14" font-weight="bold" lengthAdjust="spacing" textLength="56" x="20" y="21.5352">builtins</text><!--MD5=[995811158d96457b7146b0ce0baa2b8b]
cluster md.python--><polygon fill="#FFFFFF" filter="url(#fsphjwuip3rnu)" points="487,6,569,6,576,28.4883,695,28.4883,695,105,487,105,487,6" style="stroke:#000000;stroke-width:1.5;"/><line style="stroke:#000000;stroke-width:1.5;" x1="487" x2="576" y1="28.4883" y2="28.4883"/><text fill="#000000" font-family="sans-serif" font-size="14" font-weight="bold" lengthAdjust="spacing" textLength="76" x="491" y="21.5352">md.python</text><!--MD5=[9337302705db7c49fd58a3d6e23dcdae]
cluster md.python.dict--><polygon fill="#FFFFFF" filter="url(#fsphjwuip3rnu)" points="73,129,185,129,192,151.4883,687,151.4883,687,362,73,362,73,129" style="stroke:#000000;stroke-width:1.5;"/><line style="stroke:#000000;stroke-width:1.5;" x1="73" x2="192" y1="151.4883" y2="151.4883"/><text fill="#000000" font-family="sans-serif" font-size="14" font-weight="bold" lengthAdjust="spacing" textLength="106" x="77" y="144.5352">md.python.dict</text><!--MD5=[26afaa6943c9e0f56a262483a2ac1d31]
class builtins.RuntimeError--><rect codeLine="11" fill="#EBEBEB" filter="url(#fsphjwuip3rnu)" height="48" id="builtins.RuntimeError" style="stroke:#000000;stroke-width:1.5;" width="108" x="203" y="41"/><ellipse cx="218" cy="57" fill="#ADD1B2" rx="11" ry="11" style="stroke:#000000;stroke-width:1.0;"/><path d="M220.4731,63.1431 Q219.8921,63.4419 219.2529,63.5913 Q218.6138,63.7407 217.9082,63.7407 Q215.4014,63.7407 214.0815,62.0889 Q212.7617,60.437 212.7617,57.3159 Q212.7617,54.1865 214.0815,52.5347 Q215.4014,50.8828 217.9082,50.8828 Q218.6138,50.8828 219.2612,51.0322 Q219.9087,51.1816 220.4731,51.4805 L220.4731,54.2031 Q219.8423,53.6221 219.2488,53.3523 Q218.6553,53.0825 218.0244,53.0825 Q216.6797,53.0825 215.9949,54.1492 Q215.3101,55.2158 215.3101,57.3159 Q215.3101,59.4077 215.9949,60.4744 Q216.6797,61.541 218.0244,61.541 Q218.6553,61.541 219.2488,61.2712 Q219.8423,61.0015 220.4731,60.4204 Z " fill="#000000"/><text fill="#000000" font-family="sans-serif" font-size="12" lengthAdjust="spacing" textLength="76" x="232" y="61.5352">RuntimeError</text><line style="stroke:#000000;stroke-width:1.5;" x1="204" x2="310" y1="73" y2="73"/><line style="stroke:#000000;stroke-width:1.5;" x1="204" x2="310" y1="81" y2="81"/><!--MD5=[45808c774d8737cebb60d5b95dad0bb8]
class builtins.str--><rect codeLine="12" fill="#EBEBEB" filter="url(#fsphjwuip3rnu)" height="48" id="builtins.str" style="stroke:#000000;stroke-width:1.5;" width="47" x="32.5" y="41"/><ellipse cx="47.5" cy="57" fill="#ADD1B2" rx="11" ry="11" style="stroke:#000000;stroke-width:1.0;"/><path d="M49.9731,63.1431 Q49.3921,63.4419 48.7529,63.5913 Q48.1138,63.7407 47.4082,63.7407 Q44.9014,63.7407 43.5815,62.0889 Q42.2617,60.437 42.2617,57.3159 Q42.2617,54.1865 43.5815,52.5347 Q44.9014,50.8828 47.4082,50.8828 Q48.1138,50.8828 48.7612,51.0322 Q49.4087,51.1816 49.9731,51.4805 L49.9731,54.2031 Q49.3423,53.6221 48.7488,53.3523 Q48.1553,53.0825 47.5244,53.0825 Q46.1797,53.0825 45.4949,54.1492 Q44.8101,55.2158 44.8101,57.3159 Q44.8101,59.4077 45.4949,60.4744 Q46.1797,61.541 47.5244,61.541 Q48.1553,61.541 48.7488,61.2712 Q49.3423,61.0015 49.9731,60.4204 Z " fill="#000000"/><text fill="#000000" font-family="sans-serif" font-size="12" lengthAdjust="spacing" textLength="15" x="61.5" y="61.5352">str</text><line style="stroke:#000000;stroke-width:1.5;" x1="33.5" x2="78.5" y1="73" y2="73"/><line style="stroke:#000000;stroke-width:1.5;" x1="33.5" x2="78.5" y1="81" y2="81"/><!--MD5=[9969b326d7e69defe3f80d3f6cdbd349]
class builtins.dict--><rect codeLine="13" fill="#EBEBEB" filter="url(#fsphjwuip3rnu)" height="48" id="builtins.dict" style="stroke:#000000;stroke-width:1.5;" width="53" x="114.5" y="41"/><ellipse cx="129.5" cy="57" fill="#ADD1B2" rx="11" ry="11" style="stroke:#000000;stroke-width:1.0;"/><path d="M131.9731,63.1431 Q131.3921,63.4419 130.7529,63.5913 Q130.1138,63.7407 129.4082,63.7407 Q126.9014,63.7407 125.5815,62.0889 Q124.2617,60.437 124.2617,57.3159 Q124.2617,54.1865 125.5815,52.5347 Q126.9014,50.8828 129.4082,50.8828 Q130.1138,50.8828 130.7612,51.0322 Q131.4087,51.1816 131.9731,51.4805 L131.9731,54.2031 Q131.3423,53.6221 130.7488,53.3523 Q130.1553,53.0825 129.5244,53.0825 Q128.1797,53.0825 127.4949,54.1492 Q126.8101,55.2158 126.8101,57.3159 Q126.8101,59.4077 127.4949,60.4744 Q128.1797,61.541 129.5244,61.541 Q130.1553,61.541 130.7488,61.2712 Q131.3423,61.0015 131.9731,60.4204 Z " fill="#000000"/><text fill="#000000" font-family="sans-serif" font-size="12" lengthAdjust="spacing" textLength="21" x="143.5" y="61.5352">dict</text><line style="stroke:#000000;stroke-width:1.5;" x1="115.5" x2="166.5" y1="73" y2="73"/><line style="stroke:#000000;stroke-width:1.5;" x1="115.5" x2="166.5" y1="81" y2="81"/><!--MD5=[d46baeffd87704fe737b4c99f799a8a1]
class md.python.PythonExceptionInterface--><rect codeLine="17" fill="#EBEBEB" filter="url(#fsphjwuip3rnu)" height="48" id="md.python.PythonExceptionInterface" style="stroke:#000000;stroke-width:1.5;" width="176" x="503" y="41"/><ellipse cx="518" cy="57" fill="#B4A7E5" rx="11" ry="11" style="stroke:#000000;stroke-width:1.0;"/><path d="M514.4277,53.2651 L514.4277,51.1069 L521.8071,51.1069 L521.8071,53.2651 L519.3418,53.2651 L519.3418,61.3418 L521.8071,61.3418 L521.8071,63.5 L514.4277,63.5 L514.4277,61.3418 L516.8931,61.3418 L516.8931,53.2651 Z " fill="#000000"/><text fill="#000000" font-family="sans-serif" font-size="12" font-style="italic" lengthAdjust="spacing" textLength="144" x="532" y="61.5352">PythonExceptionInterface</text><line style="stroke:#000000;stroke-width:1.5;" x1="504" x2="678" y1="73" y2="73"/><line style="stroke:#000000;stroke-width:1.5;" x1="504" x2="678" y1="81" y2="81"/><!--MD5=[c939c705f42de0827ab240778ef08a78]
class DictExceptionInterface--><rect codeLine="21" fill="#EBEBEB" filter="url(#fsphjwuip3rnu)" height="48" id="DictExceptionInterface" style="stroke:#000000;stroke-width:1.5;" width="160" x="511" y="170.5"/><ellipse cx="526" cy="186.5" fill="#B4A7E5" rx="11" ry="11" style="stroke:#000000;stroke-width:1.0;"/><path d="M522.4277,182.7651 L522.4277,180.6069 L529.8071,180.6069 L529.8071,182.7651 L527.3418,182.7651 L527.3418,190.8418 L529.8071,190.8418 L529.8071,193 L522.4277,193 L522.4277,190.8418 L524.8931,190.8418 L524.8931,182.7651 Z " fill="#000000"/><text fill="#000000" font-family="sans-serif" font-size="12" font-style="italic" lengthAdjust="spacing" textLength="128" x="540" y="191.0352">DictExceptionInterface</text><line style="stroke:#000000;stroke-width:1.5;" x1="512" x2="670" y1="202.5" y2="202.5"/><line style="stroke:#000000;stroke-width:1.5;" x1="512" x2="670" y1="210.5" y2="210.5"/><!--MD5=[25edce6b15ba428d0d4ec97b3be31eec]
class MergeDictionaryInterface--><rect codeLine="22" fill="#EBEBEB" filter="url(#fsphjwuip3rnu)" height="60.9551" id="MergeDictionaryInterface" style="stroke:#000000;stroke-width:1.5;" width="210" x="266" y="164"/><ellipse cx="296.75" cy="180" fill="#B4A7E5" rx="11" ry="11" style="stroke:#000000;stroke-width:1.0;"/><path d="M293.1777,176.2651 L293.1777,174.1069 L300.5571,174.1069 L300.5571,176.2651 L298.0918,176.2651 L298.0918,184.3418 L300.5571,184.3418 L300.5571,186.5 L293.1777,186.5 L293.1777,184.3418 L295.6431,184.3418 L295.6431,176.2651 Z " fill="#000000"/><text fill="#000000" font-family="sans-serif" font-size="12" font-style="italic" lengthAdjust="spacing" textLength="143" x="314.25" y="184.5352">MergeDictionaryInterface</text><line style="stroke:#000000;stroke-width:1.5;" x1="267" x2="475" y1="196" y2="196"/><line style="stroke:#000000;stroke-width:1.5;" x1="267" x2="475" y1="204" y2="204"/><ellipse cx="277" cy="215" fill="#84BE84" rx="3" ry="3" style="stroke:#038048;stroke-width:1.0;"/><text fill="#000000" font-family="sans-serif" font-size="11" lengthAdjust="spacing" textLength="184" x="286" y="218.6348">merge(left: dict, right: dict) -&gt; dict</text><!--MD5=[fffc8e1818cb3676981c159e942b6efe]
class DefaultMergeDictionary--><rect codeLine="25" fill="#EBEBEB" filter="url(#fsphjwuip3rnu)" height="60.9551" id="DefaultMergeDictionary" style="stroke:#000000;stroke-width:1.5;" width="210" x="286" y="285"/><ellipse cx="320.8" cy="301" fill="#ADD1B2" rx="11" ry="11" style="stroke:#000000;stroke-width:1.0;"/><path d="M323.2731,307.1431 Q322.6921,307.4419 322.0529,307.5913 Q321.4138,307.7407 320.7082,307.7407 Q318.2014,307.7407 316.8815,306.0889 Q315.5617,304.437 315.5617,301.3159 Q315.5617,298.1865 316.8815,296.5347 Q318.2014,294.8828 320.7082,294.8828 Q321.4138,294.8828 322.0612,295.0322 Q322.7087,295.1816 323.2731,295.4805 L323.2731,298.2031 Q322.6423,297.6221 322.0488,297.3523 Q321.4553,297.0825 320.8244,297.0825 Q319.4797,297.0825 318.7949,298.1492 Q318.1101,299.2158 318.1101,301.3159 Q318.1101,303.4077 318.7949,304.4744 Q319.4797,305.541 320.8244,305.541 Q321.4553,305.541 322.0488,305.2712 Q322.6423,305.0015 323.2731,304.4204 Z " fill="#000000"/><text fill="#000000" font-family="sans-serif" font-size="12" lengthAdjust="spacing" textLength="134" x="339.2" y="305.5352">DefaultMergeDictionary</text><line style="stroke:#000000;stroke-width:1.5;" x1="287" x2="495" y1="317" y2="317"/><line style="stroke:#000000;stroke-width:1.5;" x1="287" x2="495" y1="325" y2="325"/><ellipse cx="297" cy="336" fill="#84BE84" rx="3" ry="3" style="stroke:#038048;stroke-width:1.0;"/><text fill="#000000" font-family="sans-serif" font-size="11" lengthAdjust="spacing" textLength="184" x="306" y="339.6348">merge(left: dict, right: dict) -&gt; dict</text><!--MD5=[68345d3a28013d3e712b0abbc710bc57]
class CaseInsensitiveDictKey--><rect codeLine="29" fill="#EBEBEB" filter="url(#fsphjwuip3rnu)" height="48" id="CaseInsensitiveDictKey" style="stroke:#000000;stroke-width:1.5;" width="162" x="89" y="291.5"/><ellipse cx="104" cy="307.5" fill="#ADD1B2" rx="11" ry="11" style="stroke:#000000;stroke-width:1.0;"/><path d="M106.4731,313.6431 Q105.8921,313.9419 105.2529,314.0913 Q104.6138,314.2407 103.9082,314.2407 Q101.4014,314.2407 100.0815,312.5889 Q98.7617,310.937 98.7617,307.8159 Q98.7617,304.6865 100.0815,303.0347 Q101.4014,301.3828 103.9082,301.3828 Q104.6138,301.3828 105.2612,301.5322 Q105.9087,301.6816 106.4731,301.9805 L106.4731,304.7031 Q105.8423,304.1221 105.2488,303.8523 Q104.6553,303.5825 104.0244,303.5825 Q102.6797,303.5825 101.9949,304.6492 Q101.3101,305.7158 101.3101,307.8159 Q101.3101,309.9077 101.9949,310.9744 Q102.6797,312.041 104.0244,312.041 Q104.6553,312.041 105.2488,311.7712 Q105.8423,311.5015 106.4731,310.9204 Z " fill="#000000"/><text fill="#000000" font-family="sans-serif" font-size="12" lengthAdjust="spacing" textLength="130" x="118" y="312.0352">CaseInsensitiveDictKey</text><line style="stroke:#000000;stroke-width:1.5;" x1="90" x2="250" y1="323.5" y2="323.5"/><line style="stroke:#000000;stroke-width:1.5;" x1="90" x2="250" y1="331.5" y2="331.5"/><!--MD5=[d30fe8832cdc58dccf88effd1a169816]
class CaseInsensitiveDict--><rect codeLine="30" fill="#EBEBEB" filter="url(#fsphjwuip3rnu)" height="48" id="CaseInsensitiveDict" style="stroke:#000000;stroke-width:1.5;" width="141" x="89.5" y="170.5"/><ellipse cx="104.5" cy="186.5" fill="#ADD1B2" rx="11" ry="11" style="stroke:#000000;stroke-width:1.0;"/><path d="M106.9731,192.6431 Q106.3921,192.9419 105.7529,193.0913 Q105.1138,193.2407 104.4082,193.2407 Q101.9014,193.2407 100.5815,191.5889 Q99.2617,189.937 99.2617,186.8159 Q99.2617,183.6865 100.5815,182.0347 Q101.9014,180.3828 104.4082,180.3828 Q105.1138,180.3828 105.7612,180.5322 Q106.4087,180.6816 106.9731,180.9805 L106.9731,183.7031 Q106.3423,183.1221 105.7488,182.8523 Q105.1553,182.5825 104.5244,182.5825 Q103.1797,182.5825 102.4949,183.6492 Q101.8101,184.7158 101.8101,186.8159 Q101.8101,188.9077 102.4949,189.9744 Q103.1797,191.041 104.5244,191.041 Q105.1553,191.041 105.7488,190.7712 Q106.3423,190.5015 106.9731,189.9204 Z " fill="#000000"/><text fill="#000000" font-family="sans-serif" font-size="12" lengthAdjust="spacing" textLength="109" x="118.5" y="191.0352">CaseInsensitiveDict</text><line style="stroke:#000000;stroke-width:1.5;" x1="90.5" x2="229.5" y1="202.5" y2="202.5"/><line style="stroke:#000000;stroke-width:1.5;" x1="90.5" x2="229.5" y1="210.5" y2="210.5"/><!--MD5=[0cca6d07043a48c410c6a7d098df10db]
reverse link md.python.PythonExceptionInterface to DictExceptionInterface--><path d="M591,109.05 C591,109.05 591,170.13 591,170.13 " fill="none" id="md.python.PythonExceptionInterface-backto-DictExceptionInterface" style="stroke:#333333;stroke-width:1.0;"/><polygon fill="none" points="584,109.05,591,89.05,598,109.05,584,109.05" style="stroke:#333333;stroke-width:1.0;"/><!--MD5=[5d28ee3b8f94fa88a557a73ef28fba07]
reverse link MergeDictionaryInterface to DefaultMergeDictionary--><path d="M381,245.03 C381,245.03 381,284.98 381,284.98 " fill="none" id="MergeDictionaryInterface-backto-DefaultMergeDictionary" style="stroke:#333333;stroke-width:1.0;stroke-dasharray:7.0,7.0;"/><polygon fill="none" points="374,245.03,381,225.03,388,245.03,374,245.03" style="stroke:#333333;stroke-width:1.0;"/><!--MD5=[5b6a49f52c3d531324075b2d832e45f7]
reverse link builtins.str to CaseInsensitiveDictKey--><path d="M56,109.07 C56,109.07 56,316 56,316 C56,316 70.4,316 88.97,316 " fill="none" id="builtins.str-backto-CaseInsensitiveDictKey" style="stroke:#333333;stroke-width:1.0;"/><polygon fill="none" points="49,109.07,56,89.07,63,109.07,49,109.07" style="stroke:#333333;stroke-width:1.0;"/><!--MD5=[9695b338cae7ddb4277c349aea7d2a0d]
reverse link builtins.dict to CaseInsensitiveDict--><path d="M141,109.05 C141,109.05 141,170.13 141,170.13 " fill="none" id="builtins.dict-backto-CaseInsensitiveDict" style="stroke:#333333;stroke-width:1.0;"/><polygon fill="none" points="134,109.05,141,89.05,148,109.05,134,109.05" style="stroke:#333333;stroke-width:1.0;"/><!--MD5=[d83c39c22db203269da4e06314e5e7b5]
link CaseInsensitiveDict to CaseInsensitiveDictKey--><path codeLine="32" d="M160,230.7 C160,230.7 160,278.35 160,278.35 " fill="none" id="CaseInsensitiveDict-CaseInsensitiveDictKey" style="stroke:#333333;stroke-width:1.0;"/><polygon fill="#333333" points="160,291.35,164,282.35,160,286.35,156,282.35,160,291.35" style="stroke:#333333;stroke-width:1.0;"/><line style="stroke:#333333;stroke-width:1.0;" x1="160" x2="160" y1="286.35" y2="278.35"/><polygon fill="#333333" points="160,218.7,156,224.7,160,230.7,164,224.7,160,218.7" style="stroke:#333333;stroke-width:1.0;"/><!--MD5=[205a5f6ec489e53b6e4734401f22246f]
@startuml

skinparam class {
  BackgroundColor #ebebeb
  ArrowColor      #333
  BorderColor     #000
}

skinparam lineType ortho

package builtins {
  class builtins.RuntimeError {}
  class builtins.str {}
  class builtins.dict {}
}

package md.python {
  interface md.python.PythonExceptionInterface {}
}

package md.python.dict {
  interface DictExceptionInterface extends md.python.PythonExceptionInterface {}
  interface MergeDictionaryInterface {
    + merge(left: dict, right: dict) -> dict
  }
  class DefaultMergeDictionary implements MergeDictionaryInterface {
    + merge(left: dict, right: dict) -> dict
  }

  class CaseInsensitiveDictKey extends builtins.str {}
  class CaseInsensitiveDict extends builtins.dict {}

  CaseInsensitiveDict *- -> CaseInsensitiveDictKey
}

@enduml

PlantUML version 1.2022.0(Tue Jan 11 19:16:42 MSK 2022)
(GPL source distribution)
Java Runtime: Java(TM) SE Runtime Environment
JVM: Java HotSpot(TM) 64-Bit Server VM
Default Encoding: UTF-8
Language: ru
Country: RU
--></g></svg>