<?xml version="1.0" encoding="UTF-8" standalone="no"?><svg xmlns="http://www.w3.org/2000/svg" xmlns:xlink="http://www.w3.org/1999/xlink" contentScriptType="application/ecmascript" contentStyleType="text/css" height="369px" preserveAspectRatio="none" style="width:704px;height:369px;background:#FFFFFF;" version="1.1" viewBox="0 0 704 369" width="704px" zoomAndPan="magnify"><defs><filter height="300%" id="facem3zgtyg9f" width="300%" x="-1" y="-1"><feGaussianBlur result="blurOut" stdDeviation="2.0"/><feColorMatrix in="blurOut" result="blurOut2" type="matrix" values="0 0 0 0 0 0 0 0 0 0 0 0 0 0 0 0 0 0 .4 0"/><feOffset dx="4.0" dy="4.0" in="blurOut2" result="blurOut3"/><feBlend in="SourceGraphic" in2="blurOut3" mode="normal"/></filter></defs><g><!--MD5=[5e9a57a3377260e11f4c161d717e577e]
cluster builtins--><polygon fill="#FFFFFF" filter="url(#facem3zgtyg9f)" points="16,6,78,6,85,28.4883,327,28.4883,327,105,16,105,16,6" style="stroke:#000000;stroke-width:1.5;"/><line style="stroke:#000000;stroke-width:1.5;" x1="16" x2="85" y1="28.4883" y2="28.4883"/><text fill="#000000" font-family="sans-serif" font-size="14" font-weight="bold" lengthAdjust="spacing" textLength="56" x="20" y="21.5352">builtins</text><!--MD5=[9337302705db7c49fd58a3d6e23dcdae]
cluster md.python.dict--><polygon fill="#FFFFFF" filter="url(#facem3zgtyg9f)" points="73,129,185,129,192,151.4883,687,151.4883,687,362,73,362,73,129" style="stroke:#000000;stroke-width:1.5;"/><line style="stroke:#000000;stroke-width:1.5;" x1="73" x2="192" y1="151.4883" y2="151.4883"/><text fill="#000000" font-family="sans-serif" font-size="14" font-weight="bold" lengthAdjust="spacing" textLength="106" x="77" y="144.5352">md.python.dict</text><!--MD5=[26afaa6943c9e0f56a262483a2ac1d31]
class builtins.RuntimeError--><rect codeLine="11" fill="#EBEBEB" filter="url(#facem3zgtyg9f)" height="48" id="builtins.RuntimeError" style="stroke:#000000;stroke-width:1.5;" width="108" x="203" y="41"/><ellipse cx="218" cy="57" fill="#ADD1B2" rx="11" ry="11" style="stroke:#000000;stroke-width:1.0;"/><path d="M220.9731,62.6431 Q220.3921,62.9419 219.7529,63.0913 Q219.1138,63.2407 218.4082,63.2407 Q215.9014,63.2407 214.5815,61.5889 Q213.2617,59.937 213.2617,56.8159 Q213.2617,53.6865 214.5815,52.0347 Q215.9014,50.3828 218.4082,50.3828 Q219.1138,50.3828 219.7612,50.5322 Q220.4087,50.6816 220.9731,50.9805 L220.9731,53.7031 Q220.3423,53.1221 219.7488,52.8523 Q219.1553,52.5825 218.5244,52.5825 Q217.1797,52.5825 216.4949,53.6492 Q215.8101,54.7158 215.8101,56.8159 Q215.8101,58.9077 216.4949,59.9744 Q217.1797,61.041 218.5244,61.041 Q219.1553,61.041 219.7488,60.7712 Q220.3423,60.5015 220.9731,59.9204 Z " fill="#000000"/><text fill="#000000" font-family="sans-serif" font-size="12" lengthAdjust="spacing" textLength="76" x="232" y="61.5352">RuntimeError</text><line style="stroke:#000000;stroke-width:1.5;" x1="204" x2="310" y1="73" y2="73"/><line style="stroke:#000000;stroke-width:1.5;" x1="204" x2="310" y1="81" y2="81"/><!--MD5=[45808c774d8737cebb60d5b95dad0bb8]
class builtins.str--><rect codeLine="12" fill="#EBEBEB" filter="url(#facem3zgtyg9f)" height="48" id="builtins.str" style="stroke:#000000;stroke-width:1.5;" width="47" x="32.5" y="41"/><ellipse cx="47.5" cy="57" fill="#ADD1B2" rx="11" ry="11" style="stroke:#000000;stroke-width:1.0;"/><path d="M50.4731,62.6431 Q49.8921,62.9419 49.2529,63.0913 Q48.6138,63.2407 47.9082,63.2407 Q45.4014,63.2407 44.0815,61.5889 Q42.7617,59.937 42.7617,56.8159 Q42.7617,53.6865 44.0815,52.0347 Q45.4014,50.3828 47.9082,50.3828 Q48.6138,50.3828 49.2612,50.5322 Q49.9087,50.6816 50.4731,50.9805 L50.4731,53.7031 Q49.8423,53.1221 49.2488,52.8523 Q48.6553,52.5825 48.0244,52.5825 Q46.6797,52.5825 45.9949,53.6492 Q45.3101,54.7158 45.3101,56.8159 Q45.3101,58.9077 45.9949,59.9744 Q46.6797,61.041 48.0244,61.041 Q48.6553,61.041 49.2488,60.7712 Q49.8423,60.5015 50.4731,59.9204 Z " fill="#000000"/><text fill="#000000" font-family="sans-serif" font-size="12" lengthAdjust="spacing" textLength="15" x="61.5" y="61.5352">str</text><line style="stroke:#000000;stroke-width:1.5;" x1="33.5" x2="78.5" y1="73" y2="73"/><line style="stroke:#000000;stroke-width:1.5;" x1="33.5" x2="78.5" y1="81" y2="81"/><!--MD5=[9969b326d7e69defe3f80d3f6cdbd349]
class builtins.dict--><rect codeLine="13" fill="#EBEBEB" filter="url(#facem3zgtyg9f)" height="48" id="builtins.dict" style="stroke:#000000;stroke-width:1.5;" width="53" x="114.5" y="41"/><ellipse cx="129.5" cy="57" fill="#ADD1B2" rx="11" ry="11" style="stroke:#000000;stroke-width:1.0;"/><path d="M132.4731,62.6431 Q131.8921,62.9419 131.2529,63.0913 Q130.6138,63.2407 129.9082,63.2407 Q127.4014,63.2407 126.0815,61.5889 Q124.7617,59.937 124.7617,56.8159 Q124.7617,53.6865 126.0815,52.0347 Q127.4014,50.3828 129.9082,50.3828 Q130.6138,50.3828 131.2612,50.5322 Q131.9087,50.6816 132.4731,50.9805 L132.4731,53.7031 Q131.8423,53.1221 131.2488,52.8523 Q130.6553,52.5825 130.0244,52.5825 Q128.6797,52.5825 127.9949,53.6492 Q127.3101,54.7158 127.3101,56.8159 Q127.3101,58.9077 127.9949,59.9744 Q128.6797,61.041 130.0244,61.041 Q130.6553,61.041 131.2488,60.7712 Q131.8423,60.5015 132.4731,59.9204 Z " fill="#000000"/><text fill="#000000" font-family="sans-serif" font-size="12" lengthAdjust="spacing" textLength="21" x="143.5" y="61.5352">dict</text><line style="stroke:#000000;stroke-width:1.5;" x1="115.5" x2="166.5" y1="73" y2="73"/><line style="stroke:#000000;stroke-width:1.5;" x1="115.5" x2="166.5" y1="81" y2="81"/><!--MD5=[c939c705f42de0827ab240778ef08a78]
class DictExceptionInterface--><rect codeLine="17" fill="#EBEBEB" filter="url(#facem3zgtyg9f)" height="48" id="DictExceptionInterface" style="stroke:#000000;stroke-width:1.5;" width="160" x="511" y="170.5"/><ellipse cx="526" cy="186.5" fill="#B4A7E5" rx="11" ry="11" style="stroke:#000000;stroke-width:1.0;"/><path d="M521.9277,182.2651 L521.9277,180.1069 L529.3071,180.1069 L529.3071,182.2651 L526.8418,182.2651 L526.8418,190.3418 L529.3071,190.3418 L529.3071,192.5 L521.9277,192.5 L521.9277,190.3418 L524.3931,190.3418 L524.3931,182.2651 Z " fill="#000000"/><text fill="#000000" font-family="sans-serif" font-size="12" font-style="italic" lengthAdjust="spacing" textLength="128" x="540" y="191.0352">DictExceptionInterface</text><line style="stroke:#000000;stroke-width:1.5;" x1="512" x2="670" y1="202.5" y2="202.5"/><line style="stroke:#000000;stroke-width:1.5;" x1="512" x2="670" y1="210.5" y2="210.5"/><!--MD5=[25edce6b15ba428d0d4ec97b3be31eec]
class MergeDictionaryInterface--><rect codeLine="18" fill="#EBEBEB" filter="url(#facem3zgtyg9f)" height="60.9551" id="MergeDictionaryInterface" style="stroke:#000000;stroke-width:1.5;" width="210" x="266" y="164"/><ellipse cx="296.75" cy="180" fill="#B4A7E5" rx="11" ry="11" style="stroke:#000000;stroke-width:1.0;"/><path d="M292.6777,175.7651 L292.6777,173.6069 L300.0571,173.6069 L300.0571,175.7651 L297.5918,175.7651 L297.5918,183.8418 L300.0571,183.8418 L300.0571,186 L292.6777,186 L292.6777,183.8418 L295.1431,183.8418 L295.1431,175.7651 Z " fill="#000000"/><text fill="#000000" font-family="sans-serif" font-size="12" font-style="italic" lengthAdjust="spacing" textLength="143" x="314.25" y="184.5352">MergeDictionaryInterface</text><line style="stroke:#000000;stroke-width:1.5;" x1="267" x2="475" y1="196" y2="196"/><line style="stroke:#000000;stroke-width:1.5;" x1="267" x2="475" y1="204" y2="204"/><ellipse cx="277" cy="215" fill="#84BE84" rx="3" ry="3" style="stroke:#038048;stroke-width:1.0;"/><text fill="#000000" font-family="sans-serif" font-size="11" lengthAdjust="spacing" textLength="184" x="286" y="218.6348">merge(left: dict, right: dict) -&gt; dict</text><!--MD5=[fffc8e1818cb3676981c159e942b6efe]
class DefaultMergeDictionary--><rect codeLine="21" fill="#EBEBEB" filter="url(#facem3zgtyg9f)" height="60.9551" id="DefaultMergeDictionary" style="stroke:#000000;stroke-width:1.5;" width="210" x="286" y="285"/><ellipse cx="320.8" cy="301" fill="#ADD1B2" rx="11" ry="11" style="stroke:#000000;stroke-width:1.0;"/><path d="M323.7731,306.6431 Q323.1921,306.9419 322.5529,307.0913 Q321.9138,307.2407 321.2082,307.2407 Q318.7014,307.2407 317.3815,305.5889 Q316.0617,303.937 316.0617,300.8159 Q316.0617,297.6865 317.3815,296.0347 Q318.7014,294.3828 321.2082,294.3828 Q321.9138,294.3828 322.5612,294.5322 Q323.2087,294.6816 323.7731,294.9805 L323.7731,297.7031 Q323.1423,297.1221 322.5488,296.8523 Q321.9553,296.5825 321.3244,296.5825 Q319.9797,296.5825 319.2949,297.6492 Q318.6101,298.7158 318.6101,300.8159 Q318.6101,302.9077 319.2949,303.9744 Q319.9797,305.041 321.3244,305.041 Q321.9553,305.041 322.5488,304.7712 Q323.1423,304.5015 323.7731,303.9204 Z " fill="#000000"/><text fill="#000000" font-family="sans-serif" font-size="12" lengthAdjust="spacing" textLength="134" x="339.2" y="305.5352">DefaultMergeDictionary</text><line style="stroke:#000000;stroke-width:1.5;" x1="287" x2="495" y1="317" y2="317"/><line style="stroke:#000000;stroke-width:1.5;" x1="287" x2="495" y1="325" y2="325"/><ellipse cx="297" cy="336" fill="#84BE84" rx="3" ry="3" style="stroke:#038048;stroke-width:1.0;"/><text fill="#000000" font-family="sans-serif" font-size="11" lengthAdjust="spacing" textLength="184" x="306" y="339.6348">merge(left: dict, right: dict) -&gt; dict</text><!--MD5=[68345d3a28013d3e712b0abbc710bc57]
class CaseInsensitiveDictKey--><rect codeLine="25" fill="#EBEBEB" filter="url(#facem3zgtyg9f)" height="48" id="CaseInsensitiveDictKey" style="stroke:#000000;stroke-width:1.5;" width="162" x="89" y="291.5"/><ellipse cx="104" cy="307.5" fill="#ADD1B2" rx="11" ry="11" style="stroke:#000000;stroke-width:1.0;"/><path d="M106.9731,313.1431 Q106.3921,313.4419 105.7529,313.5913 Q105.1138,313.7407 104.4082,313.7407 Q101.9014,313.7407 100.5815,312.0889 Q99.2617,310.437 99.2617,307.3159 Q99.2617,304.1865 100.5815,302.5347 Q101.9014,300.8828 104.4082,300.8828 Q105.1138,300.8828 105.7612,301.0322 Q106.4087,301.1816 106.9731,301.4805 L106.9731,304.2031 Q106.3423,303.6221 105.7488,303.3523 Q105.1553,303.0825 104.5244,303.0825 Q103.1797,303.0825 102.4949,304.1492 Q101.8101,305.2158 101.8101,307.3159 Q101.8101,309.4077 102.4949,310.4744 Q103.1797,311.541 104.5244,311.541 Q105.1553,311.541 105.7488,311.2712 Q106.3423,311.0015 106.9731,310.4204 Z " fill="#000000"/><text fill="#000000" font-family="sans-serif" font-size="12" lengthAdjust="spacing" textLength="130" x="118" y="312.0352">CaseInsensitiveDictKey</text><line style="stroke:#000000;stroke-width:1.5;" x1="90" x2="250" y1="323.5" y2="323.5"/><line style="stroke:#000000;stroke-width:1.5;" x1="90" x2="250" y1="331.5" y2="331.5"/><!--MD5=[d30fe8832cdc58dccf88effd1a169816]
class CaseInsensitiveDict--><rect codeLine="26" fill="#EBEBEB" filter="url(#facem3zgtyg9f)" height="48" id="CaseInsensitiveDict" style="stroke:#000000;stroke-width:1.5;" width="141" x="89.5" y="170.5"/><ellipse cx="104.5" cy="186.5" fill="#ADD1B2" rx="11" ry="11" style="stroke:#000000;stroke-width:1.0;"/><path d="M107.4731,192.1431 Q106.8921,192.4419 106.2529,192.5913 Q105.6138,192.7407 104.9082,192.7407 Q102.4014,192.7407 101.0815,191.0889 Q99.7617,189.437 99.7617,186.3159 Q99.7617,183.1865 101.0815,181.5347 Q102.4014,179.8828 104.9082,179.8828 Q105.6138,179.8828 106.2612,180.0322 Q106.9087,180.1816 107.4731,180.4805 L107.4731,183.2031 Q106.8423,182.6221 106.2488,182.3523 Q105.6553,182.0825 105.0244,182.0825 Q103.6797,182.0825 102.9949,183.1492 Q102.3101,184.2158 102.3101,186.3159 Q102.3101,188.4077 102.9949,189.4744 Q103.6797,190.541 105.0244,190.541 Q105.6553,190.541 106.2488,190.2712 Q106.8423,190.0015 107.4731,189.4204 Z " fill="#000000"/><text fill="#000000" font-family="sans-serif" font-size="12" lengthAdjust="spacing" textLength="109" x="118.5" y="191.0352">CaseInsensitiveDict</text><line style="stroke:#000000;stroke-width:1.5;" x1="90.5" x2="229.5" y1="202.5" y2="202.5"/><line style="stroke:#000000;stroke-width:1.5;" x1="90.5" x2="229.5" y1="210.5" y2="210.5"/><!--MD5=[5d28ee3b8f94fa88a557a73ef28fba07]
reverse link MergeDictionaryInterface to DefaultMergeDictionary--><path d="M381,245.03 C381,245.03 381,284.98 381,284.98 " fill="none" id="MergeDictionaryInterface-backto-DefaultMergeDictionary" style="stroke:#333333;stroke-width:1.0;stroke-dasharray:7.0,7.0;"/><polygon fill="none" points="374,245.03,381,225.03,388,245.03,374,245.03" style="stroke:#333333;stroke-width:1.0;"/><!--MD5=[5b6a49f52c3d531324075b2d832e45f7]
reverse link builtins.str to CaseInsensitiveDictKey--><path d="M56,109.07 C56,109.07 56,316 56,316 C56,316 70.4,316 88.97,316 " fill="none" id="builtins.str-backto-CaseInsensitiveDictKey" style="stroke:#333333;stroke-width:1.0;"/><polygon fill="none" points="49,109.07,56,89.07,63,109.07,49,109.07" style="stroke:#333333;stroke-width:1.0;"/><!--MD5=[9695b338cae7ddb4277c349aea7d2a0d]
reverse link builtins.dict to CaseInsensitiveDict--><path d="M141,109.05 C141,109.05 141,170.13 141,170.13 " fill="none" id="builtins.dict-backto-CaseInsensitiveDict" style="stroke:#333333;stroke-width:1.0;"/><polygon fill="none" points="134,109.05,141,89.05,148,109.05,134,109.05" style="stroke:#333333;stroke-width:1.0;"/><!--MD5=[d83c39c22db203269da4e06314e5e7b5]
link CaseInsensitiveDict to CaseInsensitiveDictKey--><path codeLine="28" d="M160,230.7 C160,230.7 160,278.35 160,278.35 " fill="none" id="CaseInsensitiveDict-CaseInsensitiveDictKey" style="stroke:#333333;stroke-width:1.0;"/><polygon fill="#333333" points="160,291.35,164,282.35,160,286.35,156,282.35,160,291.35" style="stroke:#333333;stroke-width:1.0;"/><line style="stroke:#333333;stroke-width:1.0;" x1="160" x2="160" y1="286.35" y2="278.35"/><polygon fill="#333333" points="160,218.7,156,224.7,160,230.7,164,224.7,160,218.7" style="stroke:#333333;stroke-width:1.0;"/><!--MD5=[e99b4d5ccb2302474e157b5f87892bb4]
@startuml

skinparam class {
  BackgroundColor #ebebeb
  ArrowColor      #333
  BorderColor     #000
}

skinparam lineType ortho

package builtins {
  class builtins.RuntimeError {}
  class builtins.str {}
  class builtins.dict {}
}

package md.python.dict {
  interface DictExceptionInterface {}
  interface MergeDictionaryInterface {
    + merge(left: dict, right: dict) -> dict
  }
  class DefaultMergeDictionary implements MergeDictionaryInterface {
    + merge(left: dict, right: dict) -> dict
  }

  class CaseInsensitiveDictKey extends builtins.str {}
  class CaseInsensitiveDict extends builtins.dict {}

  CaseInsensitiveDict *- -> CaseInsensitiveDictKey
}

@enduml

PlantUML version 1.2022.0(Tue Jan 11 19:16:42 MSK 2022)
(GPL source distribution)
Java Runtime: OpenJDK Runtime Environment
JVM: OpenJDK 64-Bit Server VM
Default Encoding: UTF-8
Language: ru
Country: RU
--></g></svg>